<svg xmlns="http://www.w3.org/2000/svg" xmlns:xlink="http://www.w3.org/1999/xlink" version="1.1" x="0px" y="0px" viewBox="0 0 20 25" enable-background="new 0 0 20 20" xml:space="preserve"><path fill="#000000" d="M19.8,8.3L18,6.7V1.4C18,1.2,17.8,1,17.6,1h-3.2C14.2,1,14,1.2,14,1.4v1.9l-3.8-3.2C10.1,0,9.9,0,9.8,0.1  L0.2,8.3C-0.2,8.5,0,9,0.4,9H2v10c0,0.6,0.4,1,1,1h3.8C6.9,20,7,19.9,7,19.8v-3.6c0-1.6,1.2-3.1,2.8-3.2c1.7-0.1,3.2,1.3,3.2,3v3.8  c0,0.1,0.1,0.2,0.2,0.2H17c0.6,0,1-0.4,1-1V9h1.6C20,9,20.2,8.5,19.8,8.3z"/><text x="0" y="35" fill="#000000" font-size="5px" font-weight="bold" font-family="'Helvetica Neue', Helvetica, Arial-Unicode, Arial, Sans-serif">Created by ProSymbols</text><text x="0" y="40" fill="#000000" font-size="5px" font-weight="bold" font-family="'Helvetica Neue', Helvetica, Arial-Unicode, Arial, Sans-serif">from the Noun Project</text></svg>